<?xml version="1.0" encoding="utf-8"?>
<!-- Generator: Adobe Illustrator 18.1.1, SVG Export Plug-In . SVG Version: 6.00 Build 0)  -->
<svg version="1.1" id="Layer_1" xmlns="http://www.w3.org/2000/svg" xmlns:xlink="http://www.w3.org/1999/xlink" x="0px" y="0px"
	 viewBox="0 0 13.4 17" enable-background="new 0 0 13.4 17" xml:space="preserve">
<path fill="none" stroke="#5E5F5F" stroke-linecap="round" stroke-linejoin="round" stroke-miterlimit="10" d="M3.7,5.8"/>
<path fill="none" stroke="#5E5F5F" stroke-linecap="round" stroke-linejoin="round" stroke-miterlimit="10" d="M9.3,3.1V0.6
	c0,0-0.1-0.1-0.2-0.1H4.3c-0.1,0-0.2,0-0.2,0.1v2.6"/>
<path fill="none" stroke="#5E5F5F" stroke-linecap="round" stroke-linejoin="round" stroke-miterlimit="10" d="M2.1,5.9v10.2
	c0,0.2,0.1,0.3,0.3,0.3h8.5c0.2,0,0.3-0.1,0.3-0.3V5.9"/>
<path fill="none" stroke="#5E5F5F" stroke-linecap="round" stroke-linejoin="round" stroke-miterlimit="10" d="M12.5,5.8H0.8
	c-0.2,0-0.3-0.1-0.3-0.3V3.7c0-0.2,0.1-0.3,0.3-0.3h11.7c0.2,0,0.3,0.1,0.3,0.3v1.8C12.9,5.7,12.7,5.8,12.5,5.8z"/>
<line fill="none" stroke="#5E5F5F" stroke-linecap="round" stroke-linejoin="round" stroke-miterlimit="10" x1="8.2" y1="7.9" x2="8.2" y2="14.5"/>
<line fill="none" stroke="#5E5F5F" stroke-linecap="round" stroke-linejoin="round" stroke-miterlimit="10" x1="5.2" y1="7.9" x2="5.2" y2="14.5"/>
</svg>
