<svg width="24" height="24" viewBox="0 0 24 24" fill="none" xmlns="http://www.w3.org/2000/svg">
<g id="Misc/atom">
<path id="Vector" d="M12 12.0002V12.0102M19.0711 4.9291C18.321 4.17896 16.8566 4.20452 15.0001 5.00017C13.1435 5.79582 11.047 7.29638 9.17162 9.17175C7.29626 11.0471 5.7957 13.1437 5.00005 15.0002C4.2044 16.8567 4.17884 18.3211 4.92898 19.0712C5.67913 19.8214 7.14354 19.7958 9.00005 19.0002C10.8566 18.2045 12.9531 16.704 14.8285 14.8286C15.7571 13.9 16.6034 12.9074 17.3192 11.9073C18.0349 10.9073 18.6061 9.91943 19.0001 9.00017C19.394 8.08092 19.6031 7.24827 19.6153 6.54975C19.6275 5.85124 19.4426 5.30054 19.0711 4.9291ZM4.92898 4.92911C4.17884 5.67926 4.2044 7.14366 5.00005 9.00018C5.7957 10.8567 7.29626 12.9532 9.17162 14.8286C11.047 16.704 13.1435 18.2045 15.0001 19.0002C16.8566 19.7958 18.321 19.8214 19.0711 19.0712C19.8213 18.3211 19.7957 16.8567 19.0001 15.0002C18.2044 13.1437 16.7038 11.0471 14.8285 9.17175C13.8999 8.24317 12.9072 7.39683 11.9072 6.68107C10.9072 5.96531 9.9193 5.39414 9.00005 5.00018C8.0808 4.60621 7.24814 4.39717 6.54963 4.38497C5.85111 4.37278 5.30042 4.55768 4.92898 4.92911Z" stroke="white" stroke-width="1.5" stroke-linecap="round" stroke-linejoin="round"/>
</g>
</svg>
