<svg width="17" height="18"  fill="none" xmlns="http://www.w3.org/2000/svg">
<path d="M5 15C5 16.1046 4.10457 17 3 17C1.89543 17 1 16.1046 1 15C1 13.8954 1.89543 13 3 13M5 15C5 13.8954 4.10457 13 3 13M5 15H11C11.5304 15 12.0391 14.7893 12.4142 14.4142C12.7893 14.0391 13 13.5304 13 13V8M3 13V5M3 5C4.10457 5 5 4.10457 5 3C5 1.89543 4.10457 1 3 1C1.89543 1 1 1.89543 1 3C1 4.10457 1.89543 5 3 5ZM13 8L10 11M13 8L16 11M15 3C15 4.10457 14.1046 5 13 5C11.8954 5 11 4.10457 11 3C11 1.89543 11.8954 1 13 1C14.1046 1 15 1.89543 15 3Z" stroke-linecap="round" stroke-linejoin="round"/>
</svg>
