<svg width="24" height="24" viewBox="0 0 24 24" fill="none" xmlns="http://www.w3.org/2000/svg">
<g id="Icon">
<path id="Vector" d="M18 12.0002C19.6569 12.0002 21 10.657 21 9.00018V7.00018C21 5.34333 19.6569 4.00018 18 4.00018H6C4.34315 4.00018 3 5.34333 3 7.00018V9.00018C3 10.657 4.34315 12.0002 6 12.0002M18 12.0002H6M18 12.0002C19.6569 12.0002 21 13.3433 21 15.0002V17.0002C21 18.657 19.6569 20.0002 18 20.0002H6C4.34315 20.0002 3 18.657 3 17.0002V15.0002C3 13.3433 4.34315 12.0002 6 12.0002M7 8.00018V8.01018M7 16.0002V16.0102M11 8.00018H17M11 16.0002H17" stroke="white" stroke-width="1.5" stroke-linecap="round" stroke-linejoin="round"/>
</g>
</svg>
