<svg width="24" height="24" viewBox="0 0 24 24" fill="none" xmlns="http://www.w3.org/2000/svg">
<g id="Buildings/smart-home">
<path id="Vector" d="M16 15.0002C13.79 16.3332 10.208 16.3332 8.00003 15.0002M19 8.70995L13.667 4.56195C13.199 4.19786 12.623 4.00018 12.03 4.00018C11.4371 4.00018 10.861 4.19786 10.393 4.56195L5.05903 8.70995C4.73847 8.95924 4.47912 9.27848 4.30078 9.6433C4.12245 10.0081 4.02984 10.4089 4.03003 10.815V18.015C4.03003 18.5454 4.24074 19.0541 4.61582 19.4292C4.99089 19.8042 5.4996 20.015 6.03003 20.015H18.03C18.5605 20.015 19.0692 19.8042 19.4442 19.4292C19.8193 19.0541 20.03 18.5454 20.03 18.015V10.815C20.03 9.99195 19.65 9.21495 19 8.70995Z" stroke="white" stroke-width="1.5" stroke-linecap="round" stroke-linejoin="round"/>
</g>
</svg>
