<svg width="20" height="20" viewBox="0 0 20 20" fill="none" xmlns="http://www.w3.org/2000/svg">
<path d="M4.16797 16.849C4.41548 16.0252 4.92194 15.3032 5.61222 14.79C6.30249 14.2768 7.13982 13.9997 7.99997 14H12C12.8612 13.9997 13.6996 14.2774 14.3904 14.7918C15.0811 15.3062 15.5874 16.0298 15.834 16.855M19 10C19 14.9706 14.9706 19 10 19C5.02944 19 1 14.9706 1 10C1 5.02944 5.02944 1 10 1C14.9706 1 19 5.02944 19 10ZM13 8C13 9.65685 11.6569 11 10 11C8.34315 11 7 9.65685 7 8C7 6.34315 8.34315 5 10 5C11.6569 5 13 6.34315 13 8Z" stroke="white" stroke-width="1.5" stroke-linecap="round" stroke-linejoin="round"/>
</svg>
